<svg width="238" height="98" viewBox="0 0 238 98" fill="none" xmlns="http://www.w3.org/2000/svg">
<path d="M7 43V37H1V31H13V37H31V25H7V19H1V7H7V1H37V7H43V13H31V7H13V19H37V25H43V37H37V43H7Z" fill="#ED4B6D"/>
<path d="M49 43V1H61V7H67V13H73V19H79V1H91V43H79V31H73V25H67V19H61V43H49Z" fill="#ED4B6D"/>
<path d="M97 43V13H103V7H109V1H127V7H133V13H139V43H127V31H109V43H97ZM109 25H127V13H121V7H115V13H109V25Z" fill="#ED4B6D"/>
<path d="M145 43V1H157V19H163V13H169V7H175V1H187V7H181V13H175V19H169V25H175V31H181V37H187V43H169V37H163V31H157V43H145Z" fill="#ED4B6D"/>
<path d="M193 43V1H235V7H205V19H229V25H205V37H235V43H193Z" fill="#ED4B6D"/>
<path d="M13 97V91H7V85H1V67H7V61H13V55H43V61H19V67H13V85H19V91H31V79H25V73H43V97H13Z" fill="#ED4B6D"/>
<path d="M49 97V67H55V61H61V55H79V61H85V67H91V97H79V85H61V97H49ZM61 79H79V67H73V61H67V67H61V79Z" fill="#ED4B6D"/>
<path d="M97 97V55H109V61H115V67H121V61H127V55H139V97H127V73H121V85H115V73H109V97H97Z" fill="#ED4B6D"/>
<path d="M145 97V55H187V61H157V73H181V79H157V91H187V97H145Z" fill="#ED4B6D"/>
<path fill-rule="evenodd" clip-rule="evenodd" d="M6.5 43.5V37.5H0.5V30.5H13.5V36.5H30.5V25.5H6.5V19.5H0.5V6.5H6.5V0.5H37.5V6.5H43.5V13.5H30.5V7.5H13.5V18.5H37.5V24.5H43.5V37.5H37.5V43.5H6.5ZM37 37H43V25H37V19H13V7H31V13H43V7H37V1H7V7H1V19H7V25H31V37H13V31H1V37H7V43H37V37ZM48.5 43.5V0.5H61.5V6.5H67.5V12.5H73.5V18.5H78.5V0.5H91.5V43.5H78.5V31.5H72.5V25.5H66.5V19.5H61.5V43.5H48.5ZM61 19H67V25H73V31H79V43H91V1H79V19H73V13H67V7H61V1H49V43H61V19ZM96.5 43.5V12.5H102.5V6.5H108.5V0.5H127.5V6.5H133.5V12.5H139.5V43.5H126.5V31.5H109.5V43.5H96.5ZM109 31H127V43H139V13H133V7H127V1H109V7H103V13H97V43H109V31ZM120.5 13.5V7.5H115.5V13.5H109.5V24.5H126.5V13.5H120.5ZM127 13V25H109V13H115V7H121V13H127ZM144.5 43.5V0.5H157.5V18.5H162.5V12.5H168.5V6.5H174.5V0.5H187.5V7.5H181.5V13.5H175.5V19.5H169.5V24.5H175.5V30.5H181.5V36.5H187.5V43.5H168.5V37.5H162.5V31.5H157.5V43.5H144.5ZM157 31H163V37H169V43H187V37H181V31H175V25H169V19H175V13H181V7H187V1H175V7H169V13H163V19H157V1H145V43H157V31ZM192.5 43.5V0.5H235.5V7.5H205.5V18.5H229.5V25.5H205.5V36.5H235.5V43.5H192.5ZM205 37V25H229V19H205V7H235V1H193V43H235V37H205ZM12.5 97.5V91.5H6.5V85.5H0.5V66.5H6.5V60.5H12.5V54.5H43.5V61.5H19.5V67.5H13.5V84.5H19.5V90.5H30.5V79.5H24.5V72.5H43.5V97.5H12.5ZM31 79V91H19V85H13V67H19V61H43V55H13V61H7V67H1V85H7V91H13V97H43V73H25V79H31ZM48.5 97.5V66.5H54.5V60.5H60.5V54.5H79.5V60.5H85.5V66.5H91.5V97.5H78.5V85.5H61.5V97.5H48.5ZM61 85H79V97H91V67H85V61H79V55H61V61H55V67H49V97H61V85ZM72.5 67.5V61.5H67.5V67.5H61.5V78.5H78.5V67.5H72.5ZM79 67V79H61V67H67V61H73V67H79ZM96.5 97.5V54.5H109.5V60.5H115.5V66.5H120.5V60.5H126.5V54.5H139.5V97.5H126.5V73.5H121.5V85.5H114.5V73.5H109.5V97.5H96.5ZM109 73H115V85H121V73H127V97H139V55H127V61H121V67H115V61H109V55H97V97H109V73ZM144.5 97.5V54.5H187.5V61.5H157.5V72.5H181.5V79.5H157.5V90.5H187.5V97.5H144.5ZM157 91V79H181V73H157V61H187V55H145V97H187V91H157Z" fill="#FAD516"/>
<rect x="193.25" y="90.75" width="33.5" height="6.5" fill="#ED4B6D" stroke="#FAD516" stroke-width="0.5"/>
<rect x="231" y="90.5" width="7" height="7" fill="#FAD516"/>
</svg>
