<svg width="238" height="97" viewBox="0 0 238 97" fill="none" xmlns="http://www.w3.org/2000/svg">
<path d="M6.5 42.5V36.5H0.5V30.5H12.5V36.5H30.5V24.5H6.5V18.5H0.5V6.5H6.5V0.5H36.5V6.5H42.5V12.5H30.5V6.5H12.5V18.5H36.5V24.5H42.5V36.5H36.5V42.5H6.5Z" fill="#FFC300"/>
<path d="M48.5 42.5V0.5H60.5V6.5H66.5V12.5H72.5V18.5H78.5V0.5H90.5V42.5H78.5V30.5H72.5V24.5H66.5V18.5H60.5V42.5H48.5Z" fill="#FFC300"/>
<path d="M96.5 42.5V12.5H102.5V6.5H108.5V0.5H126.5V6.5H132.5V12.5H138.5V42.5H126.5V30.5H108.5V42.5H96.5ZM108.5 24.5H126.5V12.5H120.5V6.5H114.5V12.5H108.5V24.5Z" fill="#FFC300"/>
<path d="M144.5 42.5V0.5H156.5V18.5H162.5V12.5H168.5V6.5H174.5V0.5H186.5V6.5H180.5V12.5H174.5V18.5H168.5V24.5H174.5V30.5H180.5V36.5H186.5V42.5H168.5V36.5H162.5V30.5H156.5V42.5H144.5Z" fill="#FFC300"/>
<path d="M192.5 42.5V0.5H234.5V6.5H204.5V18.5H228.5V24.5H204.5V36.5H234.5V42.5H192.5Z" fill="#FFC300"/>
<path d="M12.5 96.5V90.5H6.5V84.5H0.5V66.5H6.5V60.5H12.5V54.5H42.5V60.5H18.5V66.5H12.5V84.5H18.5V90.5H30.5V78.5H24.5V72.5H42.5V96.5H12.5Z" fill="#FFC300"/>
<path d="M48.5 96.5V66.5H54.5V60.5H60.5V54.5H78.5V60.5H84.5V66.5H90.5V96.5H78.5V84.5H60.5V96.5H48.5ZM60.5 78.5H78.5V66.5H72.5V60.5H66.5V66.5H60.5V78.5Z" fill="#FFC300"/>
<path d="M96.5 96.5V54.5H108.5V60.5H114.5V66.5H120.5V60.5H126.5V54.5H138.5V96.5H126.5V72.5H120.5V84.5H114.5V72.5H108.5V96.5H96.5Z" fill="#FFC300"/>
<path d="M144.5 96.5V54.5H186.5V60.5H156.5V72.5H180.5V78.5H156.5V90.5H186.5V96.5H144.5Z" fill="#FFC300"/>
<path fill-rule="evenodd" clip-rule="evenodd" d="M6 43V37H0V30H13V36H30V25H6V19H0V6H6V0H37V6H43V13H30V7H13V18H37V24H43V37H37V43H6ZM36.5 36.5H42.5V24.5H36.5V18.5H12.5V6.5H30.5V12.5H42.5V6.5H36.5V0.5H6.5V6.5H0.5V18.5H6.5V24.5H30.5V36.5H12.5V30.5H0.5V36.5H6.5V42.5H36.5V36.5ZM48 43V0H61V6H67V12H73V18H78V0H91V43H78V31H72V25H66V19H61V43H48ZM60.5 18.5H66.5V24.5H72.5V30.5H78.5V42.5H90.5V0.5H78.5V18.5H72.5V12.5H66.5V6.5H60.5V0.5H48.5V42.5H60.5V18.5ZM96 43V12H102V6H108V0H127V6H133V12H139V43H126V31H109V43H96ZM108.5 30.5H126.5V42.5H138.5V12.5H132.5V6.5H126.5V0.5H108.5V6.5H102.5V12.5H96.5V42.5H108.5V30.5ZM120 13V7H115V13H109V24H126V13H120ZM126.5 12.5V24.5H108.5V12.5H114.5V6.5H120.5V12.5H126.5ZM144 43V0H157V18H162V12H168V6H174V0H187V7H181V13H175V19H169V24H175V30H181V36H187V43H168V37H162V31H157V43H144ZM156.5 30.5H162.5V36.5H168.5V42.5H186.5V36.5H180.5V30.5H174.5V24.5H168.5V18.5H174.5V12.5H180.5V6.5H186.5V0.5H174.5V6.5H168.5V12.5H162.5V18.5H156.5V0.5H144.5V42.5H156.5V30.5ZM192 43V0H235V7H205V18H229V25H205V36H235V43H192ZM204.5 36.5V24.5H228.5V18.5H204.5V6.5H234.5V0.5H192.5V42.5H234.5V36.5H204.5ZM12 97V91H6V85H0V66H6V60H12V54H43V61H19V67H13V84H19V90H30V79H24V72H43V97H12ZM30.5 78.5V90.5H18.5V84.5H12.5V66.5H18.5V60.5H42.5V54.5H12.5V60.5H6.5V66.5H0.5V84.5H6.5V90.5H12.5V96.5H42.5V72.5H24.5V78.5H30.5ZM48 97V66H54V60H60V54H79V60H85V66H91V97H78V85H61V97H48ZM60.5 84.5H78.5V96.5H90.5V66.5H84.5V60.5H78.5V54.5H60.5V60.5H54.5V66.5H48.5V96.5H60.5V84.5ZM72 67V61H67V67H61V78H78V67H72ZM78.5 66.5V78.5H60.5V66.5H66.5V60.5H72.5V66.5H78.5ZM96 97V54H109V60H115V66H120V60H126V54H139V97H126V73H121V85H114V73H109V97H96ZM108.5 72.5H114.5V84.5H120.5V72.5H126.5V96.5H138.5V54.5H126.5V60.5H120.5V66.5H114.5V60.5H108.5V54.5H96.5V96.5H108.5V72.5ZM144 97V54H187V61H157V72H181V79H157V90H187V97H144ZM156.5 90.5V78.5H180.5V72.5H156.5V60.5H186.5V54.5H144.5V96.5H186.5V90.5H156.5Z" fill="white"/>
<rect x="192.75" y="90.25" width="33.5" height="6.5" fill="#FFC300" stroke="#283620" stroke-width="0.5"/>
<rect x="230.5" y="90" width="7" height="7" fill="#CA1C1C"/>
</svg>
