<svg xmlns="http://www.w3.org/2000/svg" width="901" height="507" viewBox="0 0 901 507" version="1.1"><path d="M 98.241 73.250 L 98.500 127.500 147.250 127.760 L 196 128.019 196 122.510 L 196 117 201.520 117 L 207.040 117 206.770 95.750 L 206.500 74.500 158.250 74.240 L 110 73.981 110 95.503 L 110 117.024 147.250 116.762 L 184.500 116.500 184.800 110.750 L 185.100 105 190.550 105 L 196 105 196 97.434 C 196 88.843, 194.922 86, 191.665 86 C 188.403 86, 187 87.864, 187 92.200 L 187 96 181.550 96 L 176.100 96 175.800 101.750 L 175.500 107.500 147.250 107.766 L 119 108.031 119 95.516 L 119 83 158.500 83 L 198 83 198 95.500 L 198 108 192.500 108 L 187 108 187 113.500 L 187 119 147 119 L 107 119 107 73.500 L 107 28 147 28 L 187 28 187 33.500 L 187 39 192.500 39 L 198 39 198 51.500 L 198 64 158.500 64 L 119 64 119 51.484 L 119 38.969 147.250 39.234 L 175.500 39.500 175.802 44.750 L 176.105 50 181.552 50 L 187 50 187 55.500 L 187 61 191.500 61 L 196 61 196 51 L 196 41 190.500 41 L 185 41 185 36 L 185 31 147.500 31 L 110 31 110 51.500 L 110 72 158.500 72 L 207 72 207 51.552 L 207 31.105 201.750 30.802 L 196.500 30.500 196.200 24.750 L 195.900 19 146.941 19 L 97.983 19 98.241 73.250 M 218 68 L 218 117 267.500 117 C 299.833 117, 317 117.347, 317 118 C 317 118.653, 299.814 119, 267.443 119 L 217.885 119 218.193 123.250 L 218.500 127.500 272.250 127.759 L 326 128.017 326 118.009 L 326 108 276.500 108 L 227 108 227 68 L 227 28 272 28 C 311.333 28, 317 28.189, 317 29.500 C 317 30.811, 311.444 31, 273 31 L 229 31 229 51.500 L 229 72 261.941 72 C 282.521 72, 295.111 72.370, 295.492 72.986 C 295.887 73.626, 284.375 74.066, 262.801 74.236 L 229.500 74.500 229.221 87.761 C 228.921 102.033, 229.629 105, 233.335 105 C 237.313 105, 238 103.204, 238 92.800 L 238 83 271.500 83 L 305 83 305 73.500 L 305 64 271.500 64 L 238 64 238 51.500 L 238 39 282 39 L 326 39 326 29 L 326 19 272 19 L 218 19 218 68 M 344.800 24.750 C 344.470 31.071, 345.205 30.542, 336.250 30.908 L 334 31 334 73.500 L 334 116 338.500 116 L 343 116 343 77.500 L 343 39 348.500 39 L 354 39 354 33.500 L 354 28 393.500 28 C 427.944 28, 433 28.192, 433 29.500 C 433 30.807, 428.056 31, 394.500 31 L 356 31 356 36 L 356 41 350.500 41 L 345 41 345 72.948 L 345 104.895 350.250 105.198 L 355.500 105.500 355.802 110.750 L 356.105 116 394.552 116 C 428.061 116, 433 116.193, 433 117.500 C 433 118.808, 427.944 119, 393.500 119 L 354 119 354 115.434 C 354 110.690, 352.431 108, 349.665 108 C 345.766 108, 345 109.840, 345 119.200 L 345 128 393.535 128 L 442.070 128 441.785 117.750 L 441.500 107.500 403.302 107.238 L 365.104 106.976 364.802 101.738 L 364.500 96.500 359.250 96.198 L 354 95.895 354 72.948 L 354 50 359.500 50 L 365 50 365 44.500 L 365 39 403.500 39 L 442 39 442 29 L 442 19 393.550 19 L 345.100 19 344.800 24.750 M 464.800 24.750 L 464.500 30.500 459.250 30.802 L 454 31.105 454 35.052 L 454 39 464 39 L 474 39 474 33.500 L 474 28 508 28 L 542 28 542 33.500 L 542 39 547.500 39 L 553 39 553 73.500 L 553 108 547.500 108 L 542 108 542 113.500 L 542 119 508 119 L 474 119 474 113.500 L 474 108 468.500 108 L 463 108 463 79 C 463 60.333, 463.356 50, 464 50 C 464.642 50, 465 59.833, 465 77.500 L 465 105 469.950 105 L 474.900 105 475.200 110.750 L 475.500 116.500 507.750 116.764 L 540 117.028 540 111.014 L 540 105 545.500 105 L 551 105 551 73 L 551 41 545.500 41 L 540 41 540 36 L 540 31 508.500 31 C 491.175 31, 476.663 30.887, 476.250 30.750 C 475.837 30.613, 475.367 33.810, 475.204 37.855 C 474.885 45.783, 476.479 50.014, 479.773 49.985 C 483.033 49.956, 484.313 48.260, 484.407 43.844 L 484.500 39.500 507.750 39.232 L 531 38.963 531 44.482 L 531 50 536.500 50 L 542 50 542 73 L 542 96 536.500 96 L 531 96 531 102.018 L 531 108.037 507.750 107.768 L 484.500 107.500 484.200 101.750 L 483.900 96 478.966 96 L 474.032 96 473.766 68.750 L 473.500 41.500 463.750 41.214 L 454 40.928 454 78.964 L 454 117 459.500 117 L 465 117 465 122.500 L 465 128 508 128 L 551 128 551 122.500 L 551 117 556.500 117 L 562 117 562 74.052 L 562 31.105 556.750 30.802 L 551.500 30.500 551.200 24.750 L 550.900 19 508 19 L 465.100 19 464.800 24.750 M 569 73.500 L 569 128 578.500 128 L 588 128 588 87 L 588 46 583.512 46 L 579.025 46 578.750 82.750 C 578.497 116.460, 578.468 115.695, 578.400 73.500 C 578.359 48.200, 578.590 29.975, 578.913 33 L 579.500 38.500 585.250 38.800 L 591 39.100 591 44.550 L 591 50 597 50 L 603 50 603 55.500 L 603 61 608 61 L 613 61 613 66.500 L 613 72 623 72 L 633 72 633 66.500 L 633 61 639 61 L 645 61 645 55.500 L 645 50 650 50 L 655 50 655 44.500 L 655 39 660.500 39 L 666 39 666 33.500 C 666 29.261, 666.346 28, 667.510 28 C 668.839 28, 668.989 33.444, 668.760 73.250 C 668.590 102.788, 668.153 118.413, 667.500 118.249 C 666.860 118.089, 666.431 104.595, 666.307 80.778 C 666.137 47.921, 665.926 43.419, 664.511 42.384 C 662.193 40.690, 659.332 41.782, 658.067 44.845 C 657.319 46.658, 657.055 60.193, 657.236 87.500 L 657.500 127.500 667.500 127.500 L 677.500 127.500 677.759 73.250 L 678.017 19 667.509 19 L 657 19 657 24.500 L 657 30 651.500 30 L 646 30 646 35.500 L 646 41 641 41 L 636 41 636 46.500 L 636 52 630 52 L 624 52 624 57.500 C 624 60.525, 623.550 63, 623 63 C 622.450 63, 622 60.525, 622 57.500 L 622 52 617 52 L 612 52 612 46.500 L 612 41 606 41 L 600 41 600 35.500 L 600 30 594 30 L 588 30 588 24.500 L 588 19 578.500 19 L 569 19 569 73.500 M 689 23.500 L 689 28 739.083 28 C 778.705 28, 789.080 28.261, 788.750 29.250 C 788.427 30.220, 778.424 30.558, 744.167 30.760 L 700 31.021 700 51.510 L 700 72 732.941 72 C 753.823 72, 766.108 72.366, 766.500 73 C 766.907 73.659, 755.677 74, 733.559 74 L 700 74 700 95.500 L 700 117 744.500 117 C 773.500 117, 789 117.348, 789 118 C 789 118.652, 773.167 119, 743.500 119 L 698 119 697.985 76.250 C 697.976 52.737, 697.639 33.017, 697.235 32.427 C 695.717 30.211, 692.963 30.037, 690.967 32.033 C 689.034 33.966, 688.987 35.273, 689.240 80.760 L 689.500 127.500 743.500 127.500 L 797.500 127.500 797.786 117.750 L 798.072 108 753.536 108 L 709 108 709 95.500 L 709 83 742.500 83 L 776 83 776 73.500 L 776 64 742.500 64 L 709 64 709 51.500 L 709 39 753.500 39 L 798 39 798 29 L 798 19 743.500 19 L 689 19 689 23.500 M 282 139.500 L 282 144 331.500 144 C 363.833 144, 381 144.347, 381 145 C 381 145.636, 373 146, 359 146 L 337 146 337 190.583 C 337 225.805, 336.738 235.079, 335.750 234.750 C 334.780 234.427, 334.442 224.424, 334.240 190.167 L 333.979 146 309.190 146 C 291.242 146, 284.069 146.331, 283.200 147.200 C 281.363 149.037, 281.772 152.808, 283.934 153.965 C 285.083 154.580, 294.015 155, 305.934 155 L 326 155 326 199 L 326 243 336 243 L 346 243 346 199.020 L 346 155.039 367.750 154.770 L 389.500 154.500 389.786 144.750 L 390.072 135 336.036 135 L 282 135 282 139.500 M 396 139.500 L 396 144 401.500 144 L 407 144 407 166 L 407 188 450 188 L 493 188 493 165.917 C 493 148.694, 493.275 143.925, 494.250 144.250 C 495.225 144.575, 495.500 154.522, 495.500 189.500 C 495.500 224.478, 495.225 234.425, 494.250 234.750 C 493.275 235.075, 493 230.206, 493 212.583 L 493 190 450 190 L 407 190 407 212.500 C 407 226.833, 406.637 235, 406 235 C 405.349 235, 405 220.024, 405 192.071 C 405 154.379, 404.808 148.951, 403.429 147.571 C 401.586 145.729, 400.562 145.629, 397.934 147.035 C 396.064 148.036, 396 149.632, 396 195.535 L 396 243 406 243 L 416 243 416 221 L 416 199 450 199 L 484 199 484 221.035 L 484 243.070 494.250 242.785 C 499.887 242.628, 504.387 242.162, 504.250 241.750 C 504.113 241.338, 504 217.150, 504 188 L 504 135 494 135 L 484 135 484 157 L 484 179 450 179 L 416 179 416 157 L 416 135 406 135 L 396 135 396 139.500 M 511 183.500 L 511 232 560.500 232 C 603.833 232, 610 232.187, 610 233.500 C 610 234.813, 603.833 235, 560.500 235 L 511 235 511 239 L 511 243 564.905 243 L 618.810 243 618.655 233.250 L 618.500 223.500 569.250 223.241 L 520 222.981 520 183.491 L 520 144 565 144 C 594.333 144, 610 144.348, 610 145 C 610 145.652, 594.493 146, 565.480 146 L 520.959 146 521.230 166.750 L 521.500 187.500 554.750 187.763 C 575.455 187.928, 588 188.394, 588 189 C 588 189.606, 575.455 190.072, 554.750 190.237 L 521.500 190.500 521.219 203.378 C 520.919 217.148, 521.942 221, 525.901 221 C 529.086 221, 529.910 218.694, 530.210 208.946 L 530.500 199.500 563.250 199.236 L 596 198.973 596 188.986 L 596 179 563 179 L 530 179 530 167.010 L 530 155.021 574.250 154.760 L 618.500 154.500 618.632 144.750 L 618.765 135 564.882 135 L 511 135 511 183.500 M 160.394 252.416 C 160.095 253.194, 159.997 255.107, 160.175 256.666 L 160.500 259.500 210.303 259.759 C 242.871 259.929, 259.895 260.362, 259.494 261.009 C 259.105 261.639, 242.872 262, 214.921 262 L 170.959 262 171.230 282.750 L 171.500 303.500 215.750 303.760 L 260 304.021 260 327.010 L 260 350 214.500 350 C 185.152 350, 169 349.649, 169 349.010 C 169 348.376, 184.902 347.927, 213.250 347.760 L 257.500 347.500 257.770 326.750 L 258.041 306 213.520 306 L 169 306 168.985 285.250 C 168.976 273.837, 168.590 263.901, 168.126 263.170 C 167.650 262.419, 166.041 261.984, 164.431 262.170 C 162.007 262.450, 161.457 263.088, 160.771 266.415 C 160.326 268.569, 160.084 280.269, 160.231 292.415 L 160.500 314.500 204.750 314.760 L 249 315.021 249 327.010 L 249 339 204.464 339 L 159.928 339 160.214 348.750 L 160.500 358.500 214.750 358.759 L 269 359.017 269 327.019 L 269 295.021 224.750 294.760 L 180.500 294.500 180.219 282.866 L 179.939 271.232 182.476 270.595 C 183.872 270.245, 203.349 269.977, 225.757 270 C 248.166 270.024, 267.063 270.033, 267.750 270.021 C 268.661 270.006, 269 267.422, 269 260.500 L 269 251 214.969 251 C 169.296 251, 160.853 251.219, 160.394 252.416 M 276.241 304.750 L 276.500 358.500 286.250 358.786 L 296 359.072 296 320.536 C 296 295.512, 296.351 282, 297 282 C 297.550 282, 298 284.475, 298 287.500 L 298 293 303.448 293 L 308.895 293 309.198 298.250 L 309.500 303.500 314.750 303.802 L 320 304.105 320 309.552 L 320 315 326 315 L 332 315 332 320.500 L 332 326 336.948 326 L 341.895 326 342.198 331.250 L 342.500 336.500 347.750 336.802 L 353 337.105 353 342.552 L 353 348 359 348 L 365 348 365 353.500 L 365 359 374.500 359 L 384 359 384 305 L 384 251 374.500 251 L 365 251 365 292.965 C 365 333.906, 365.049 334.956, 367 336 C 368.421 336.760, 369.579 336.760, 371 336 C 372.945 334.959, 373 333.906, 373 297.465 C 373 273.155, 373.351 260, 374 260 C 374.652 260, 375 275.667, 375 305 C 375 334.333, 374.652 350, 374 350 C 373.450 350, 373 347.525, 373 344.500 L 373 339 367.500 339 L 362 339 362 333.500 L 362 328 356.500 328 L 351 328 351 322.500 L 351 317 345.500 317 L 340 317 340 311.500 L 340 306 334.500 306 L 329 306 329 300.552 L 329 295.105 323.750 294.802 L 318.500 294.500 318.198 289.250 L 317.895 284 312.498 284 L 307.100 284 306.800 278.250 L 306.500 272.500 296.750 272.214 L 287 271.928 287 310.964 C 287 336.321, 286.650 350, 286 350 C 285.348 350, 285 334.333, 285 305 C 285 275.667, 285.348 260, 286 260 C 286.550 260, 287 262.202, 287 264.893 C 287 270.159, 287.613 270.797, 292.500 270.613 L 295.500 270.500 295.786 260.750 L 296.072 251 286.028 251 L 275.983 251 276.241 304.750 M 402 256.500 L 402 262 396.750 262 L 391.500 262 391.740 309.750 C 391.872 336.012, 391.985 357.837, 391.990 358.250 C 391.996 358.663, 393.800 359, 396 359 L 400 359 400 315 C 400 265.809, 399.214 270.590, 407.250 270.881 L 411 271.017 411 265.509 L 411 260 445.448 260 L 479.895 260 480.198 265.160 L 480.500 270.321 485.750 270.272 L 491 270.223 491 310.112 C 491 335.721, 490.646 350, 490.012 350 C 489.382 350, 488.928 335.933, 488.762 311.250 L 488.500 272.500 483.250 272.198 L 478 271.895 478 266.948 L 478 262 446 262 L 414 262 414 266.950 L 414 271.900 408.250 272.200 L 402.500 272.500 402.500 288 L 402.500 303.500 435.750 303.763 C 456.769 303.930, 469 304.390, 469 305.013 C 469 305.643, 456.861 306, 435.500 306 L 402 306 402 329.435 C 402 342.324, 402.416 353.963, 402.923 355.299 C 404.055 358.275, 406.505 359.335, 409.072 357.961 C 410.882 356.993, 411 355.644, 411 335.965 L 411 315 444.500 315 L 478 315 478 305.013 L 478 295.027 444.750 294.763 L 411.500 294.500 411.500 288 L 411.500 281.500 417.250 281.200 L 423 280.900 423 275.470 L 423 270.040 446 270.111 L 469 270.182 469 275.539 L 469 280.895 474.250 281.198 L 479.500 281.500 479.762 320.250 L 480.023 359 490.012 359 L 500 359 500 310.500 L 500 262 494.500 262 L 489 262 489 256.500 L 489 251 445.500 251 L 402 251 402 256.500 M 507.607 252.582 C 506.814 254.648, 506.814 355.352, 507.607 357.418 C 508.101 358.705, 509.964 359, 517.607 359 L 527 359 527 337 L 527 315 545 315 L 563 315 563 320.500 L 563 326 567.948 326 L 572.895 326 573.198 331.250 L 573.500 336.500 579.250 336.800 L 585 337.100 585 342.550 L 585 348 590.500 348 L 596 348 596 353.500 L 596 359 604.300 359 C 613.048 359, 615 358.179, 615 354.500 C 615 351.400, 613.071 350, 608.800 350 L 605 350 605 344.500 L 605 339 599.500 339 L 594 339 594 333.550 L 594 328.100 588.250 327.800 L 582.500 327.500 582.198 322.250 L 581.895 317 576.948 317 L 572 317 572 311.500 L 572 306 545 306 L 518 306 518 328 C 518 342, 517.636 350, 517 350 C 516.348 350, 516 334.333, 516 305 C 516 276.263, 516.354 260, 516.980 260 C 517.583 260, 518.065 268.388, 518.230 281.750 L 518.500 303.500 545 303.500 L 571.500 303.500 571.802 298.250 L 572.105 293 577.002 293 L 581.900 293 582.200 287.250 L 582.500 281.500 588.250 281.200 L 594 280.900 594 275.636 L 594 270.371 599.250 270.356 L 604.500 270.341 604.802 265.171 L 605.105 260 610.052 260 L 615 260 615 255.500 L 615 251 605.552 251 L 596.105 251 595.802 256.250 L 595.500 261.500 590.250 261.802 L 585 262.105 585 267.002 L 585 271.900 579.250 272.200 L 573.500 272.500 573.200 278.250 L 572.900 284 568.002 284 L 563.105 284 562.802 289.250 L 562.500 294.500 544.750 294.773 L 527 295.046 527 273.023 L 527 251 517.607 251 C 509.964 251, 508.101 251.295, 507.607 252.582 M 631.193 255.250 L 631.500 259.500 681.303 259.759 C 713.871 259.929, 730.895 260.362, 730.494 261.009 C 730.105 261.639, 713.872 262, 685.921 262 L 641.959 262 642.230 282.750 L 642.500 303.500 675.750 303.763 C 696.769 303.930, 709 304.390, 709 305.013 C 709 305.643, 696.861 306, 675.500 306 L 642 306 642 327 L 642 348 686.500 348 C 715.500 348, 731 348.348, 731 349 C 731 349.652, 715.167 350, 685.500 350 L 640 350 640 307.582 C 640 284.252, 639.727 264.452, 639.393 263.582 C 639.031 262.640, 637.606 262, 635.868 262 C 633.649 262, 632.715 262.620, 631.965 264.591 C 631.356 266.194, 631.079 284.612, 631.240 312.841 L 631.500 358.500 685.750 358.759 L 740 359.017 740 349.009 L 740 339 695.500 339 L 651 339 651 327 L 651 315 684.500 315 L 718 315 718 305.013 L 718 295.027 684.750 294.763 L 651.500 294.500 651.219 282.866 L 650.939 271.232 653.514 270.586 C 654.931 270.230, 674.857 269.983, 697.795 270.035 L 739.500 270.132 739.786 260.566 L 740.072 251 685.479 251 L 630.885 251 631.193 255.250 M 99 424.500 L 99 478 108.500 478 L 118 478 118 437.500 L 118 397 113.512 397 L 109.025 397 108.750 433.250 C 108.506 465.370, 108.469 464.317, 108.426 424 C 108.400 398.975, 108.541 381.087, 108.739 384.250 L 109.100 390 114.550 390 L 120 390 120 395.500 L 120 401 126 401 L 132 401 132 406.500 L 132 412 136.948 412 L 141.895 412 142.198 417.250 L 142.500 422.500 152.250 422.786 L 162 423.072 162 417.536 L 162 412 168 412 L 174 412 174 406.500 L 174 401 179 401 L 184 401 184 395.500 L 184 390 189.500 390 L 195 390 195 384.500 C 195 381.475, 195.450 379, 196 379 C 196.652 379, 197 394.667, 197 424 C 197 453.333, 196.652 469, 196 469 C 195.351 469, 195 456.041, 195 432.122 C 195 400.705, 194.780 395.062, 193.513 394.011 C 191.393 392.251, 187.351 393.561, 186.633 396.239 C 186.300 397.483, 186.021 416.387, 186.014 438.250 L 186 478 196 478 L 206 478 206 424.500 L 206 371 196 371 L 186 371 186 376 L 186 381 180.500 381 L 175 381 175 386.500 L 175 392 170 392 L 165 392 165 397.500 L 165 403 159 403 L 153 403 153 408.500 C 153 411.525, 152.550 414, 152 414 C 151.450 414, 151 411.525, 151 408.500 L 151 403 146 403 L 141 403 141 397.500 L 141 392 135 392 L 129 392 129 386.500 L 129 381 123.500 381 L 118 381 118 376 L 118 371 108.500 371 L 99 371 99 424.500 M 214 424.500 L 214 478 218 478 L 222 478 222 428.500 L 222 379 267 379 L 312 379 312 424 C 312 453.333, 311.652 469, 311 469 C 310.348 469, 310 453.663, 310 424.989 L 310 380.979 267.250 381.239 L 224.500 381.500 224.230 402.250 L 223.959 423 256.980 423 C 278.022 423, 290 423.358, 290 423.986 C 290 424.609, 277.936 425.070, 257.250 425.236 L 224.500 425.500 224.255 449 C 223.999 473.574, 224.495 477.086, 228.323 477.824 C 232.644 478.656, 233 476.907, 233 454.878 L 233 434 266 434 L 299 434 299 424 L 299 414 266 414 L 233 414 233 402 L 233 390 267 390 L 301 390 301 434 L 301 478 311 478 L 321 478 321 424.500 L 321 371 267.500 371 L 214 371 214 424.500 M 333 375 L 333 379 382 379 C 413.653 379, 431 379.350, 431 379.989 C 431 380.623, 415.265 381.073, 387.250 381.239 L 343.500 381.500 343.230 402.250 L 342.959 423 386.980 423 L 431 423 431 446 L 431 469 386.500 469 C 357.500 469, 342 468.652, 342 468 C 342 467.349, 357.167 467, 385.500 467 L 429 467 429 446 L 429 425 385.500 425 L 342 425 342 406.065 C 342 384.496, 341.481 382, 336.993 382 C 334.885 382, 333.713 382.600, 333.218 383.934 C 332.823 384.997, 332.628 396.697, 332.785 409.934 L 333.069 434 376.535 434 L 420 434 420 446 L 420 458 376.500 458 L 333 458 333 468 L 333 478 386.500 478 L 440 478 440 446 L 440 414 396 414 L 352 414 352 402 L 352 390 396 390 L 440 390 440 380.500 L 440 371 386.500 371 L 333 371 333 375 M 452 375 L 452 379 501 379 C 532.350 379, 550 379.353, 550 379.980 C 550 380.583, 541.612 381.065, 528.250 381.230 L 506.500 381.500 506 425.500 C 505.725 449.700, 505.153 468.259, 504.729 466.742 C 504.305 465.225, 503.977 445.875, 504 423.742 C 504.024 401.609, 504.033 382.938, 504.021 382.250 C 503.995 380.697, 458.590 380.445, 454.565 381.975 C 452.827 382.636, 452 383.700, 452 385.275 C 452 389.762, 453.169 390, 475.200 390 L 496 390 496 434 L 496 478 505.500 478 L 515 478 515 434 L 515 390 537 390 L 559 390 559 380.500 L 559 371 505.500 371 L 452 371 452 375 M 571 419 L 571 467 620 467 C 652 467, 669 467.347, 669 468 C 669 468.653, 652 469, 620 469 L 571 469 571 473.500 L 571 478 624.500 478 L 678 478 678 468 L 678 458 629 458 L 580 458 580 418.500 L 580 379 624.500 379 C 653.500 379, 669 379.348, 669 380 C 669 380.651, 653.833 381, 625.500 381 L 582 381 582 402 L 582 423 615 423 C 636.333 423, 648 423.354, 648 424 C 648 424.646, 636.324 425, 614.973 425 L 581.947 425 582.223 439.643 C 582.463 452.314, 582.736 454.433, 584.250 455.387 C 585.524 456.190, 586.476 456.190, 587.750 455.389 C 589.195 454.479, 589.550 452.519, 589.785 444.144 L 590.070 434 623.035 434 L 656 434 656 424 L 656 414 623 414 L 590 414 590 402 L 590 390 634 390 L 678 390 678 380.500 L 678 371 624.500 371 L 571 371 571 419 M 685.241 424.250 L 685.500 477.500 695.250 477.786 L 705 478.072 705 434.036 L 705 390 733.450 390 L 761.900 390 762.200 395.750 L 762.500 401.500 768 402.056 L 773.500 402.613 768 403.056 L 762.500 403.500 762.198 408.750 L 761.895 414 734.948 414 L 708 414 708 424 L 708 434 723 434 L 738 434 738 429.500 L 738 425 727.500 425 C 721.167 425, 717 424.603, 717 424 C 717 423.358, 726.649 423, 743.948 423 L 770.895 423 771.198 417.750 L 771.500 412.500 776.750 412.198 L 782 411.895 782 402.500 L 782 393.105 776.750 392.802 L 771.500 392.500 771.200 386.738 L 770.899 380.976 733.700 381.238 L 696.500 381.500 696 425.500 C 695.725 449.700, 695.158 468.825, 694.739 468 C 694.321 467.175, 694.096 446.925, 694.239 423 L 694.500 379.500 733.750 379.238 L 773 378.977 773 384.488 L 773 390 778.500 390 L 784 390 784 401.948 L 784 413.895 778.750 414.198 L 773.500 414.500 773.198 419.750 L 772.895 425 756.448 425 L 740 425 740 435 L 740 445 745.500 445 L 751 445 751 450.500 L 751 456 756.500 456 L 762 456 762 461.500 L 762 467 767.500 467 L 773 467 773 472.500 L 773 478 781.429 478 C 787.758 478, 790.249 477.609, 791.429 476.429 C 794.892 472.965, 791.956 469, 785.929 469 L 782 469 782 463.500 L 782 458 776.500 458 L 771 458 771 452.500 L 771 447 765.500 447 L 760 447 760 441.500 L 760 436 754.500 436 C 751.475 436, 749 435.550, 749 435 C 749 434.374, 755.167 434, 765.500 434 L 782 434 782 428.500 L 782 423 787.500 423 L 793 423 793 402 L 793 381 787.500 381 L 782 381 782 376 L 782 371 733.491 371 L 684.982 371 685.241 424.250" stroke="none" fill="#fff" fill-rule="evenodd"/><path d="M -0 253.501 L -0 507.002 450.750 506.751 L 901.500 506.500 901.752 253.250 L 902.004 -0 451.002 -0 L 0 0 -0 253.501 M 0.492 254 C 0.492 393.425, 0.608 450.462, 0.750 380.750 C 0.892 311.037, 0.892 196.962, 0.750 127.250 C 0.608 57.537, 0.492 114.575, 0.492 254 M 98.241 73.250 L 98.500 127.500 147.250 127.760 L 196 128.019 196 122.510 L 196 117 201.520 117 L 207.040 117 206.770 95.750 L 206.500 74.500 158.250 74.240 L 110 73.981 110 95.503 L 110 117.024 147.250 116.762 L 184.500 116.500 184.800 110.750 L 185.100 105 190.550 105 L 196 105 196 97.434 C 196 88.843, 194.922 86, 191.665 86 C 188.403 86, 187 87.864, 187 92.200 L 187 96 181.550 96 L 176.100 96 175.800 101.750 L 175.500 107.500 147.250 107.766 L 119 108.031 119 95.516 L 119 83 158.500 83 L 198 83 198 95.500 L 198 108 192.500 108 L 187 108 187 113.500 L 187 119 147 119 L 107 119 107 73.500 L 107 28 147 28 L 187 28 187 33.500 L 187 39 192.500 39 L 198 39 198 51.500 L 198 64 158.500 64 L 119 64 119 51.484 L 119 38.969 147.250 39.234 L 175.500 39.500 175.802 44.750 L 176.105 50 181.552 50 L 187 50 187 55.500 L 187 61 191.500 61 L 196 61 196 51 L 196 41 190.500 41 L 185 41 185 36 L 185 31 147.500 31 L 110 31 110 51.500 L 110 72 158.500 72 L 207 72 207 51.552 L 207 31.105 201.750 30.802 L 196.500 30.500 196.200 24.750 L 195.900 19 146.941 19 L 97.983 19 98.241 73.250 M 218 68 L 218 117 267.500 117 C 299.833 117, 317 117.347, 317 118 C 317 118.653, 299.814 119, 267.443 119 L 217.885 119 218.193 123.250 L 218.500 127.500 272.250 127.759 L 326 128.017 326 118.009 L 326 108 276.500 108 L 227 108 227 68 L 227 28 272 28 C 311.333 28, 317 28.189, 317 29.500 C 317 30.811, 311.444 31, 273 31 L 229 31 229 51.500 L 229 72 261.941 72 C 282.521 72, 295.111 72.370, 295.492 72.986 C 295.887 73.626, 284.375 74.066, 262.801 74.236 L 229.500 74.500 229.221 87.761 C 228.921 102.033, 229.629 105, 233.335 105 C 237.313 105, 238 103.204, 238 92.800 L 238 83 271.500 83 L 305 83 305 73.500 L 305 64 271.500 64 L 238 64 238 51.500 L 238 39 282 39 L 326 39 326 29 L 326 19 272 19 L 218 19 218 68 M 344.800 24.750 C 344.470 31.071, 345.205 30.542, 336.250 30.908 L 334 31 334 73.500 L 334 116 338.500 116 L 343 116 343 77.500 L 343 39 348.500 39 L 354 39 354 33.500 L 354 28 393.500 28 C 427.944 28, 433 28.192, 433 29.500 C 433 30.807, 428.056 31, 394.500 31 L 356 31 356 36 L 356 41 350.500 41 L 345 41 345 72.948 L 345 104.895 350.250 105.198 L 355.500 105.500 355.802 110.750 L 356.105 116 394.552 116 C 428.061 116, 433 116.193, 433 117.500 C 433 118.808, 427.944 119, 393.500 119 L 354 119 354 115.434 C 354 110.690, 352.431 108, 349.665 108 C 345.766 108, 345 109.840, 345 119.200 L 345 128 393.535 128 L 442.070 128 441.785 117.750 L 441.500 107.500 403.302 107.238 L 365.104 106.976 364.802 101.738 L 364.500 96.500 359.250 96.198 L 354 95.895 354 72.948 L 354 50 359.500 50 L 365 50 365 44.500 L 365 39 403.500 39 L 442 39 442 29 L 442 19 393.550 19 L 345.100 19 344.800 24.750 M 464.800 24.750 L 464.500 30.500 459.250 30.802 L 454 31.105 454 35.052 L 454 39 464 39 L 474 39 474 33.500 L 474 28 508 28 L 542 28 542 33.500 L 542 39 547.500 39 L 553 39 553 73.500 L 553 108 547.500 108 L 542 108 542 113.500 L 542 119 508 119 L 474 119 474 113.500 L 474 108 468.500 108 L 463 108 463 79 C 463 60.333, 463.356 50, 464 50 C 464.642 50, 465 59.833, 465 77.500 L 465 105 469.950 105 L 474.900 105 475.200 110.750 L 475.500 116.500 507.750 116.764 L 540 117.028 540 111.014 L 540 105 545.500 105 L 551 105 551 73 L 551 41 545.500 41 L 540 41 540 36 L 540 31 508.500 31 C 491.175 31, 476.663 30.887, 476.250 30.750 C 475.837 30.613, 475.367 33.810, 475.204 37.855 C 474.885 45.783, 476.479 50.014, 479.773 49.985 C 483.033 49.956, 484.313 48.260, 484.407 43.844 L 484.500 39.500 507.750 39.232 L 531 38.963 531 44.482 L 531 50 536.500 50 L 542 50 542 73 L 542 96 536.500 96 L 531 96 531 102.018 L 531 108.037 507.750 107.768 L 484.500 107.500 484.200 101.750 L 483.900 96 478.966 96 L 474.032 96 473.766 68.750 L 473.500 41.500 463.750 41.214 L 454 40.928 454 78.964 L 454 117 459.500 117 L 465 117 465 122.500 L 465 128 508 128 L 551 128 551 122.500 L 551 117 556.500 117 L 562 117 562 74.052 L 562 31.105 556.750 30.802 L 551.500 30.500 551.200 24.750 L 550.900 19 508 19 L 465.100 19 464.800 24.750 M 569 73.500 L 569 128 578.500 128 L 588 128 588 87 L 588 46 583.512 46 L 579.025 46 578.750 82.750 C 578.497 116.460, 578.468 115.695, 578.400 73.500 C 578.359 48.200, 578.590 29.975, 578.913 33 L 579.500 38.500 585.250 38.800 L 591 39.100 591 44.550 L 591 50 597 50 L 603 50 603 55.500 L 603 61 608 61 L 613 61 613 66.500 L 613 72 623 72 L 633 72 633 66.500 L 633 61 639 61 L 645 61 645 55.500 L 645 50 650 50 L 655 50 655 44.500 L 655 39 660.500 39 L 666 39 666 33.500 C 666 29.261, 666.346 28, 667.510 28 C 668.839 28, 668.989 33.444, 668.760 73.250 C 668.590 102.788, 668.153 118.413, 667.500 118.249 C 666.860 118.089, 666.431 104.595, 666.307 80.778 C 666.137 47.921, 665.926 43.419, 664.511 42.384 C 662.193 40.690, 659.332 41.782, 658.067 44.845 C 657.319 46.658, 657.055 60.193, 657.236 87.500 L 657.500 127.500 667.500 127.500 L 677.500 127.500 677.759 73.250 L 678.017 19 667.509 19 L 657 19 657 24.500 L 657 30 651.500 30 L 646 30 646 35.500 L 646 41 641 41 L 636 41 636 46.500 L 636 52 630 52 L 624 52 624 57.500 C 624 60.525, 623.550 63, 623 63 C 622.450 63, 622 60.525, 622 57.500 L 622 52 617 52 L 612 52 612 46.500 L 612 41 606 41 L 600 41 600 35.500 L 600 30 594 30 L 588 30 588 24.500 L 588 19 578.500 19 L 569 19 569 73.500 M 689 23.500 L 689 28 739.083 28 C 778.705 28, 789.080 28.261, 788.750 29.250 C 788.427 30.220, 778.424 30.558, 744.167 30.760 L 700 31.021 700 51.510 L 700 72 732.941 72 C 753.823 72, 766.108 72.366, 766.500 73 C 766.907 73.659, 755.677 74, 733.559 74 L 700 74 700 95.500 L 700 117 744.500 117 C 773.500 117, 789 117.348, 789 118 C 789 118.652, 773.167 119, 743.500 119 L 698 119 697.985 76.250 C 697.976 52.737, 697.639 33.017, 697.235 32.427 C 695.717 30.211, 692.963 30.037, 690.967 32.033 C 689.034 33.966, 688.987 35.273, 689.240 80.760 L 689.500 127.500 743.500 127.500 L 797.500 127.500 797.786 117.750 L 798.072 108 753.536 108 L 709 108 709 95.500 L 709 83 742.500 83 L 776 83 776 73.500 L 776 64 742.500 64 L 709 64 709 51.500 L 709 39 753.500 39 L 798 39 798 29 L 798 19 743.500 19 L 689 19 689 23.500 M 282 139.500 L 282 144 331.500 144 C 363.833 144, 381 144.347, 381 145 C 381 145.636, 373 146, 359 146 L 337 146 337 190.583 C 337 225.805, 336.738 235.079, 335.750 234.750 C 334.780 234.427, 334.442 224.424, 334.240 190.167 L 333.979 146 309.190 146 C 291.242 146, 284.069 146.331, 283.200 147.200 C 281.363 149.037, 281.772 152.808, 283.934 153.965 C 285.083 154.580, 294.015 155, 305.934 155 L 326 155 326 199 L 326 243 336 243 L 346 243 346 199.020 L 346 155.039 367.750 154.770 L 389.500 154.500 389.786 144.750 L 390.072 135 336.036 135 L 282 135 282 139.500 M 396 139.500 L 396 144 401.500 144 L 407 144 407 166 L 407 188 450 188 L 493 188 493 165.917 C 493 148.694, 493.275 143.925, 494.250 144.250 C 495.225 144.575, 495.500 154.522, 495.500 189.500 C 495.500 224.478, 495.225 234.425, 494.250 234.750 C 493.275 235.075, 493 230.206, 493 212.583 L 493 190 450 190 L 407 190 407 212.500 C 407 226.833, 406.637 235, 406 235 C 405.349 235, 405 220.024, 405 192.071 C 405 154.379, 404.808 148.951, 403.429 147.571 C 401.586 145.729, 400.562 145.629, 397.934 147.035 C 396.064 148.036, 396 149.632, 396 195.535 L 396 243 406 243 L 416 243 416 221 L 416 199 450 199 L 484 199 484 221.035 L 484 243.070 494.250 242.785 C 499.887 242.628, 504.387 242.162, 504.250 241.750 C 504.113 241.338, 504 217.150, 504 188 L 504 135 494 135 L 484 135 484 157 L 484 179 450 179 L 416 179 416 157 L 416 135 406 135 L 396 135 396 139.500 M 511 183.500 L 511 232 560.500 232 C 603.833 232, 610 232.187, 610 233.500 C 610 234.813, 603.833 235, 560.500 235 L 511 235 511 239 L 511 243 564.905 243 L 618.810 243 618.655 233.250 L 618.500 223.500 569.250 223.241 L 520 222.981 520 183.491 L 520 144 565 144 C 594.333 144, 610 144.348, 610 145 C 610 145.652, 594.493 146, 565.480 146 L 520.959 146 521.230 166.750 L 521.500 187.500 554.750 187.763 C 575.455 187.928, 588 188.394, 588 189 C 588 189.606, 575.455 190.072, 554.750 190.237 L 521.500 190.500 521.219 203.378 C 520.919 217.148, 521.942 221, 525.901 221 C 529.086 221, 529.910 218.694, 530.210 208.946 L 530.500 199.500 563.250 199.236 L 596 198.973 596 188.986 L 596 179 563 179 L 530 179 530 167.010 L 530 155.021 574.250 154.760 L 618.500 154.500 618.632 144.750 L 618.765 135 564.882 135 L 511 135 511 183.500 M 160.394 252.416 C 160.095 253.194, 159.997 255.107, 160.175 256.666 L 160.500 259.500 210.303 259.759 C 242.871 259.929, 259.895 260.362, 259.494 261.009 C 259.105 261.639, 242.872 262, 214.921 262 L 170.959 262 171.230 282.750 L 171.500 303.500 215.750 303.760 L 260 304.021 260 327.010 L 260 350 214.500 350 C 185.152 350, 169 349.649, 169 349.010 C 169 348.376, 184.902 347.927, 213.250 347.760 L 257.500 347.500 257.770 326.750 L 258.041 306 213.520 306 L 169 306 168.985 285.250 C 168.976 273.837, 168.590 263.901, 168.126 263.170 C 167.650 262.419, 166.041 261.984, 164.431 262.170 C 162.007 262.450, 161.457 263.088, 160.771 266.415 C 160.326 268.569, 160.084 280.269, 160.231 292.415 L 160.500 314.500 204.750 314.760 L 249 315.021 249 327.010 L 249 339 204.464 339 L 159.928 339 160.214 348.750 L 160.500 358.500 214.750 358.759 L 269 359.017 269 327.019 L 269 295.021 224.750 294.760 L 180.500 294.500 180.219 282.866 L 179.939 271.232 182.476 270.595 C 183.872 270.245, 203.349 269.977, 225.757 270 C 248.166 270.024, 267.063 270.033, 267.750 270.021 C 268.661 270.006, 269 267.422, 269 260.500 L 269 251 214.969 251 C 169.296 251, 160.853 251.219, 160.394 252.416 M 276.241 304.750 L 276.500 358.500 286.250 358.786 L 296 359.072 296 320.536 C 296 295.512, 296.351 282, 297 282 C 297.550 282, 298 284.475, 298 287.500 L 298 293 303.448 293 L 308.895 293 309.198 298.250 L 309.500 303.500 314.750 303.802 L 320 304.105 320 309.552 L 320 315 326 315 L 332 315 332 320.500 L 332 326 336.948 326 L 341.895 326 342.198 331.250 L 342.500 336.500 347.750 336.802 L 353 337.105 353 342.552 L 353 348 359 348 L 365 348 365 353.500 L 365 359 374.500 359 L 384 359 384 305 L 384 251 374.500 251 L 365 251 365 292.965 C 365 333.906, 365.049 334.956, 367 336 C 368.421 336.760, 369.579 336.760, 371 336 C 372.945 334.959, 373 333.906, 373 297.465 C 373 273.155, 373.351 260, 374 260 C 374.652 260, 375 275.667, 375 305 C 375 334.333, 374.652 350, 374 350 C 373.450 350, 373 347.525, 373 344.500 L 373 339 367.500 339 L 362 339 362 333.500 L 362 328 356.500 328 L 351 328 351 322.500 L 351 317 345.500 317 L 340 317 340 311.500 L 340 306 334.500 306 L 329 306 329 300.552 L 329 295.105 323.750 294.802 L 318.500 294.500 318.198 289.250 L 317.895 284 312.498 284 L 307.100 284 306.800 278.250 L 306.500 272.500 296.750 272.214 L 287 271.928 287 310.964 C 287 336.321, 286.650 350, 286 350 C 285.348 350, 285 334.333, 285 305 C 285 275.667, 285.348 260, 286 260 C 286.550 260, 287 262.202, 287 264.893 C 287 270.159, 287.613 270.797, 292.500 270.613 L 295.500 270.500 295.786 260.750 L 296.072 251 286.028 251 L 275.983 251 276.241 304.750 M 402 256.500 L 402 262 396.750 262 L 391.500 262 391.740 309.750 C 391.872 336.012, 391.985 357.837, 391.990 358.250 C 391.996 358.663, 393.800 359, 396 359 L 400 359 400 315 C 400 265.809, 399.214 270.590, 407.250 270.881 L 411 271.017 411 265.509 L 411 260 445.448 260 L 479.895 260 480.198 265.160 L 480.500 270.321 485.750 270.272 L 491 270.223 491 310.112 C 491 335.721, 490.646 350, 490.012 350 C 489.382 350, 488.928 335.933, 488.762 311.250 L 488.500 272.500 483.250 272.198 L 478 271.895 478 266.948 L 478 262 446 262 L 414 262 414 266.950 L 414 271.900 408.250 272.200 L 402.500 272.500 402.500 288 L 402.500 303.500 435.750 303.763 C 456.769 303.930, 469 304.390, 469 305.013 C 469 305.643, 456.861 306, 435.500 306 L 402 306 402 329.435 C 402 342.324, 402.416 353.963, 402.923 355.299 C 404.055 358.275, 406.505 359.335, 409.072 357.961 C 410.882 356.993, 411 355.644, 411 335.965 L 411 315 444.500 315 L 478 315 478 305.013 L 478 295.027 444.750 294.763 L 411.500 294.500 411.500 288 L 411.500 281.500 417.250 281.200 L 423 280.900 423 275.470 L 423 270.040 446 270.111 L 469 270.182 469 275.539 L 469 280.895 474.250 281.198 L 479.500 281.500 479.762 320.250 L 480.023 359 490.012 359 L 500 359 500 310.500 L 500 262 494.500 262 L 489 262 489 256.500 L 489 251 445.500 251 L 402 251 402 256.500 M 507.607 252.582 C 506.814 254.648, 506.814 355.352, 507.607 357.418 C 508.101 358.705, 509.964 359, 517.607 359 L 527 359 527 337 L 527 315 545 315 L 563 315 563 320.500 L 563 326 567.948 326 L 572.895 326 573.198 331.250 L 573.500 336.500 579.250 336.800 L 585 337.100 585 342.550 L 585 348 590.500 348 L 596 348 596 353.500 L 596 359 604.300 359 C 613.048 359, 615 358.179, 615 354.500 C 615 351.400, 613.071 350, 608.800 350 L 605 350 605 344.500 L 605 339 599.500 339 L 594 339 594 333.550 L 594 328.100 588.250 327.800 L 582.500 327.500 582.198 322.250 L 581.895 317 576.948 317 L 572 317 572 311.500 L 572 306 545 306 L 518 306 518 328 C 518 342, 517.636 350, 517 350 C 516.348 350, 516 334.333, 516 305 C 516 276.263, 516.354 260, 516.980 260 C 517.583 260, 518.065 268.388, 518.230 281.750 L 518.500 303.500 545 303.500 L 571.500 303.500 571.802 298.250 L 572.105 293 577.002 293 L 581.900 293 582.200 287.250 L 582.500 281.500 588.250 281.200 L 594 280.900 594 275.636 L 594 270.371 599.250 270.356 L 604.500 270.341 604.802 265.171 L 605.105 260 610.052 260 L 615 260 615 255.500 L 615 251 605.552 251 L 596.105 251 595.802 256.250 L 595.500 261.500 590.250 261.802 L 585 262.105 585 267.002 L 585 271.900 579.250 272.200 L 573.500 272.500 573.200 278.250 L 572.900 284 568.002 284 L 563.105 284 562.802 289.250 L 562.500 294.500 544.750 294.773 L 527 295.046 527 273.023 L 527 251 517.607 251 C 509.964 251, 508.101 251.295, 507.607 252.582 M 631.193 255.250 L 631.500 259.500 681.303 259.759 C 713.871 259.929, 730.895 260.362, 730.494 261.009 C 730.105 261.639, 713.872 262, 685.921 262 L 641.959 262 642.230 282.750 L 642.500 303.500 675.750 303.763 C 696.769 303.930, 709 304.390, 709 305.013 C 709 305.643, 696.861 306, 675.500 306 L 642 306 642 327 L 642 348 686.500 348 C 715.500 348, 731 348.348, 731 349 C 731 349.652, 715.167 350, 685.500 350 L 640 350 640 307.582 C 640 284.252, 639.727 264.452, 639.393 263.582 C 639.031 262.640, 637.606 262, 635.868 262 C 633.649 262, 632.715 262.620, 631.965 264.591 C 631.356 266.194, 631.079 284.612, 631.240 312.841 L 631.500 358.500 685.750 358.759 L 740 359.017 740 349.009 L 740 339 695.500 339 L 651 339 651 327 L 651 315 684.500 315 L 718 315 718 305.013 L 718 295.027 684.750 294.763 L 651.500 294.500 651.219 282.866 L 650.939 271.232 653.514 270.586 C 654.931 270.230, 674.857 269.983, 697.795 270.035 L 739.500 270.132 739.786 260.566 L 740.072 251 685.479 251 L 630.885 251 631.193 255.250 M 99 424.500 L 99 478 108.500 478 L 118 478 118 437.500 L 118 397 113.512 397 L 109.025 397 108.750 433.250 C 108.506 465.370, 108.469 464.317, 108.426 424 C 108.400 398.975, 108.541 381.087, 108.739 384.250 L 109.100 390 114.550 390 L 120 390 120 395.500 L 120 401 126 401 L 132 401 132 406.500 L 132 412 136.948 412 L 141.895 412 142.198 417.250 L 142.500 422.500 152.250 422.786 L 162 423.072 162 417.536 L 162 412 168 412 L 174 412 174 406.500 L 174 401 179 401 L 184 401 184 395.500 L 184 390 189.500 390 L 195 390 195 384.500 C 195 381.475, 195.450 379, 196 379 C 196.652 379, 197 394.667, 197 424 C 197 453.333, 196.652 469, 196 469 C 195.351 469, 195 456.041, 195 432.122 C 195 400.705, 194.780 395.062, 193.513 394.011 C 191.393 392.251, 187.351 393.561, 186.633 396.239 C 186.300 397.483, 186.021 416.387, 186.014 438.250 L 186 478 196 478 L 206 478 206 424.500 L 206 371 196 371 L 186 371 186 376 L 186 381 180.500 381 L 175 381 175 386.500 L 175 392 170 392 L 165 392 165 397.500 L 165 403 159 403 L 153 403 153 408.500 C 153 411.525, 152.550 414, 152 414 C 151.450 414, 151 411.525, 151 408.500 L 151 403 146 403 L 141 403 141 397.500 L 141 392 135 392 L 129 392 129 386.500 L 129 381 123.500 381 L 118 381 118 376 L 118 371 108.500 371 L 99 371 99 424.500 M 214 424.500 L 214 478 218 478 L 222 478 222 428.500 L 222 379 267 379 L 312 379 312 424 C 312 453.333, 311.652 469, 311 469 C 310.348 469, 310 453.663, 310 424.989 L 310 380.979 267.250 381.239 L 224.500 381.500 224.230 402.250 L 223.959 423 256.980 423 C 278.022 423, 290 423.358, 290 423.986 C 290 424.609, 277.936 425.070, 257.250 425.236 L 224.500 425.500 224.255 449 C 223.999 473.574, 224.495 477.086, 228.323 477.824 C 232.644 478.656, 233 476.907, 233 454.878 L 233 434 266 434 L 299 434 299 424 L 299 414 266 414 L 233 414 233 402 L 233 390 267 390 L 301 390 301 434 L 301 478 311 478 L 321 478 321 424.500 L 321 371 267.500 371 L 214 371 214 424.500 M 333 375 L 333 379 382 379 C 413.653 379, 431 379.350, 431 379.989 C 431 380.623, 415.265 381.073, 387.250 381.239 L 343.500 381.500 343.230 402.250 L 342.959 423 386.980 423 L 431 423 431 446 L 431 469 386.500 469 C 357.500 469, 342 468.652, 342 468 C 342 467.349, 357.167 467, 385.500 467 L 429 467 429 446 L 429 425 385.500 425 L 342 425 342 406.065 C 342 384.496, 341.481 382, 336.993 382 C 334.885 382, 333.713 382.600, 333.218 383.934 C 332.823 384.997, 332.628 396.697, 332.785 409.934 L 333.069 434 376.535 434 L 420 434 420 446 L 420 458 376.500 458 L 333 458 333 468 L 333 478 386.500 478 L 440 478 440 446 L 440 414 396 414 L 352 414 352 402 L 352 390 396 390 L 440 390 440 380.500 L 440 371 386.500 371 L 333 371 333 375 M 452 375 L 452 379 501 379 C 532.350 379, 550 379.353, 550 379.980 C 550 380.583, 541.612 381.065, 528.250 381.230 L 506.500 381.500 506 425.500 C 505.725 449.700, 505.153 468.259, 504.729 466.742 C 504.305 465.225, 503.977 445.875, 504 423.742 C 504.024 401.609, 504.033 382.938, 504.021 382.250 C 503.995 380.697, 458.590 380.445, 454.565 381.975 C 452.827 382.636, 452 383.700, 452 385.275 C 452 389.762, 453.169 390, 475.200 390 L 496 390 496 434 L 496 478 505.500 478 L 515 478 515 434 L 515 390 537 390 L 559 390 559 380.500 L 559 371 505.500 371 L 452 371 452 375 M 571 419 L 571 467 620 467 C 652 467, 669 467.347, 669 468 C 669 468.653, 652 469, 620 469 L 571 469 571 473.500 L 571 478 624.500 478 L 678 478 678 468 L 678 458 629 458 L 580 458 580 418.500 L 580 379 624.500 379 C 653.500 379, 669 379.348, 669 380 C 669 380.651, 653.833 381, 625.500 381 L 582 381 582 402 L 582 423 615 423 C 636.333 423, 648 423.354, 648 424 C 648 424.646, 636.324 425, 614.973 425 L 581.947 425 582.223 439.643 C 582.463 452.314, 582.736 454.433, 584.250 455.387 C 585.524 456.190, 586.476 456.190, 587.750 455.389 C 589.195 454.479, 589.550 452.519, 589.785 444.144 L 590.070 434 623.035 434 L 656 434 656 424 L 656 414 623 414 L 590 414 590 402 L 590 390 634 390 L 678 390 678 380.500 L 678 371 624.500 371 L 571 371 571 419 M 685.241 424.250 L 685.500 477.500 695.250 477.786 L 705 478.072 705 434.036 L 705 390 733.450 390 L 761.900 390 762.200 395.750 L 762.500 401.500 768 402.056 L 773.500 402.613 768 403.056 L 762.500 403.500 762.198 408.750 L 761.895 414 734.948 414 L 708 414 708 424 L 708 434 723 434 L 738 434 738 429.500 L 738 425 727.500 425 C 721.167 425, 717 424.603, 717 424 C 717 423.358, 726.649 423, 743.948 423 L 770.895 423 771.198 417.750 L 771.500 412.500 776.750 412.198 L 782 411.895 782 402.500 L 782 393.105 776.750 392.802 L 771.500 392.500 771.200 386.738 L 770.899 380.976 733.700 381.238 L 696.500 381.500 696 425.500 C 695.725 449.700, 695.158 468.825, 694.739 468 C 694.321 467.175, 694.096 446.925, 694.239 423 L 694.500 379.500 733.750 379.238 L 773 378.977 773 384.488 L 773 390 778.500 390 L 784 390 784 401.948 L 784 413.895 778.750 414.198 L 773.500 414.500 773.198 419.750 L 772.895 425 756.448 425 L 740 425 740 435 L 740 445 745.500 445 L 751 445 751 450.500 L 751 456 756.500 456 L 762 456 762 461.500 L 762 467 767.500 467 L 773 467 773 472.500 L 773 478 781.429 478 C 787.758 478, 790.249 477.609, 791.429 476.429 C 794.892 472.965, 791.956 469, 785.929 469 L 782 469 782 463.500 L 782 458 776.500 458 L 771 458 771 452.500 L 771 447 765.500 447 L 760 447 760 441.500 L 760 436 754.500 436 C 751.475 436, 749 435.550, 749 435 C 749 434.374, 755.167 434, 765.500 434 L 782 434 782 428.500 L 782 423 787.500 423 L 793 423 793 402 L 793 381 787.500 381 L 782 381 782 376 L 782 371 733.491 371 L 684.982 371 685.241 424.250" stroke="none" fill="none" fill-rule="evenodd"/></svg>