<svg width="1280" height="32" viewBox="0 0 1280 32" fill="none" xmlns="http://www.w3.org/2000/svg">
<path d="M1278.83 31.0041L1236.22 16.288C1212.96 8.2276 1175.06 8.2276 1151.8 16.288C1128.54 24.3484 1089.52 24.4822 1065.81 16.288C1042.11 8.09381 1004.66 8.2276 981.154 16.288C957.652 24.3484 918.91 24.4822 895.206 16.288C871.501 8.09381 834.05 8.2276 810.748 16.288C787.447 24.3484 748.464 24.4822 724.759 16.288C701.055 8.09381 663.604 8.2276 640.343 16.288C617.082 24.3484 578.058 24.4822 554.354 16.288C530.649 8.09381 493.198 8.2276 469.695 16.288C446.192 24.3484 407.41 24.4822 383.706 16.288C360.001 8.09381 322.55 8.2276 299.047 16.288C275.544 24.3484 236.762 24.4822 213.058 16.288C189.353 8.09381 151.902 8.2276 128.641 16.288C105.38 24.3484 66.316 24.4822 42.6116 16.288L0 1.53837L0.76597 0L43.3776 14.7161C66.6789 22.7765 104.574 22.7765 127.835 14.7161C151.096 6.65575 190.119 6.52197 213.864 14.7161C237.609 22.9103 275.02 22.7765 298.281 14.7161C321.542 6.65575 360.566 6.52197 384.27 14.7161C407.974 22.9103 445.466 22.7765 468.929 14.7161C492.391 6.65575 531.214 6.52197 554.918 14.7161C578.622 22.9103 616.074 22.7765 639.335 14.7161C662.596 6.65575 701.619 6.52197 725.324 14.7161C749.028 22.9103 786.48 22.7765 809.781 14.7161C833.082 6.65575 872.066 6.52197 895.77 14.7161C919.475 22.9103 956.926 22.7765 980.187 14.7161C1003.45 6.65575 1042.47 6.52197 1066.18 14.7161C1089.88 22.9103 1127.33 22.7765 1150.83 14.7161C1174.34 6.65575 1213.08 6.52197 1236.78 14.7161L1279.4 29.4658L1278.83 31.0041Z" fill="white" fill-opacity="0.1"/>
</svg>
